<svg width="512" height="261" viewBox="0 0 512 261" fill="none" xmlns="http://www.w3.org/2000/svg">
<path d="M0 260.655V0H74.4727V37.2364H111.709V74.4727H148.945V37.2364H186.182V0H260.655V260.655H186.182V112.873H148.945V185.018H111.709V112.873H74.4727V260.655H0Z" fill="white" fill-opacity="0.3"/>
<path d="M288.582 0V37.2364H363.055V260.655H437.527V37.2364H512V0H288.582Z" fill="white" fill-opacity="0.3"/>
<path d="M34.9091 260.655V0H89.4337V37.2364H116.696V74.4727H143.958V37.2364H171.221V0H225.745V260.655H171.221V112.873H143.958V185.018H116.696V112.873H89.4337V260.655H34.9091Z" fill="white"/>
<path d="M321.164 0V37.2364H374.691V260.655H428.218V37.2364H481.745V0H321.164Z" fill="white"/>
</svg>
