<svg width="997" height="113" viewBox="0 0 997 113" fill="none" xmlns="http://www.w3.org/2000/svg">
<path d="M262.714 112.5V0.5H279.449V16.5H287.816V32.5H296.184V16.5H304.551V0.5H321.286V112.5H304.551V49H296.184V80H287.816V49H279.449V112.5H262.714Z" fill="#080808" stroke="black"/>
<path d="M252 112.5V56.5V0.5H274.857V16.5H286.286V32.5H297.714V16.5H309.143V0.5H332V112.5H309.143V49H297.714V80H286.286V49H274.857V112.5H252Z" fill="black" fill-opacity="0.3"/>
<path d="M609.5 0.5V16.5H628.111V112.5H646.722V16.5H665.333V0.5H609.5Z" fill="#080808" stroke="black"/>
<path d="M597 0.5V16.5H623.667V112.5H650.333V16.5H677V0.5H597Z" fill="black" fill-opacity="0.3"/>
<path d="M365.277 32.5V48.5H374.638V96.5H355.915V112.5H412.085V96.5H393.362V32.5H365.277Z" fill="#080808"/>
<path d="M374.638 0.5H393.362V16.5H374.638V0.5Z" fill="#080808"/>
<path d="M365.277 32.5V48.5H374.638V96.5H355.915V112.5H412.085V96.5H393.362V32.5H365.277Z" stroke="black"/>
<path d="M374.638 0.5H393.362V16.5H374.638V0.5Z" stroke="black"/>
<path d="M357.333 32.5V48.5H370.667V96.5H344V112.5H424V96.5H397.333V32.5H357.333Z" fill="black" fill-opacity="0.3"/>
<path d="M370.667 0.5H397.333V16.5H370.667V0.5Z" fill="black" fill-opacity="0.3"/>
<path d="M754.277 32.5V48.5H763.638V96.5H744.915V112.5H801.085V96.5H782.362V32.5H754.277Z" fill="#080808"/>
<path d="M763.638 0.5H782.362V16.5H763.638V0.5Z" fill="#080808"/>
<path d="M754.277 32.5V48.5H763.638V96.5H744.915V112.5H801.085V96.5H782.362V32.5H754.277Z" stroke="black"/>
<path d="M763.638 0.5H782.362V16.5H763.638V0.5Z" stroke="black"/>
<path d="M746.333 32.5V48.5H759.667V96.5H733V112.5H813V96.5H786.333V32.5H746.333Z" fill="black" fill-opacity="0.3"/>
<path d="M759.667 0.5H786.333V16.5H759.667V0.5Z" fill="black" fill-opacity="0.3"/>
<path d="M496.408 32.5H447.429V112.5H463.755V48.5H488.245V112.5H504.571V48.5H496.408V32.5Z" fill="#080808" stroke="black"/>
<path d="M504.571 32.5H436V112.5H458.857V48.5H493.143V112.5H516V48.5H504.571V32.5Z" fill="black" fill-opacity="0.3"/>
<path d="M885.408 32.5H836.429V112.5H852.755V48.5H877.245V112.5H893.571V48.5H885.408V32.5Z" fill="#080808" stroke="black"/>
<path d="M893.571 32.5H825V112.5H847.857V48.5H882.143V112.5H905V48.5H893.571V32.5Z" fill="black" fill-opacity="0.3"/>
<path d="M539.532 0.5H555.799V32.5H588.335V48.5H596.468V112.5H580.201V48.5H555.799V112.5H539.532V0.5Z" fill="#080808" stroke="black"/>
<path d="M528 0.5H550.857V32.5H596.571V48.5H608V112.5H585.143V48.5H550.857V112.5H528V0.5Z" fill="black" fill-opacity="0.3"/>
<path d="M928.531 0.5H944.799V32.5H977.335V48.5H985.468V112.5H969.201V48.5H944.799V112.5H928.531V0.5Z" fill="#080808" stroke="black"/>
<path d="M917 0.5H939.857V32.5H985.571V48.5H997V112.5H974.143V48.5H939.857V112.5H917V0.5Z" fill="black" fill-opacity="0.3"/>
<path d="M675.333 32.5H690.889V48.5H698.667V32.5H722V48.5H698.667V64.5H690.889V112.5H675.333V32.5Z" fill="#080808"/>
<path d="M698.667 48.5H690.889V32.5H675.333V112.5H690.889V64.5H698.667V48.5ZM698.667 48.5V32.5H722V48.5H698.667Z" stroke="black"/>
<path d="M666 32.5H688.333V48.5H699.5V32.5H733V48.5H699.5V64.5H688.333V112.5H666V32.5Z" fill="black" fill-opacity="0.3"/>
<path d="M0 112.5V0.5H32V16.5H48V32.5H64V16.5H80V0.5H112V112.5H80V49H64V80H48V49H32V112.5H0Z" fill="#B3B3B3"/>
<path d="M124 0.5V16.5H156V112.5H188V16.5H220V0.5H124Z" fill="#B3B3B3"/>
<path d="M15 112.5V0.5H38.4286V16.5H50.1429V32.5H61.8571V16.5H73.5714V0.5H97V112.5H73.5714V49H61.8571V80H50.1429V49H38.4286V112.5H15Z" fill="#080808"/>
<path d="M138 0.5V16.5H161V112.5H184V16.5H207V0.5H138Z" fill="#080808"/>
</svg>
