<svg width="997" height="112" viewBox="0 0 997 112" fill="none" xmlns="http://www.w3.org/2000/svg">
  <path d="M917 0h22.857v32h45.714v16H997v64h-22.857V48h-34.286v64H917z" fill="#fff" fill-opacity=".3"/>
  <path d="M928.531 0h16.268v32h32.536v16h8.133v64h-16.267V48h-24.402v64h-16.268z" fill="#fff"/>
  <path d="M893.571 32H825v80h22.857V48h34.286v64H905V48h-11.429z" fill="#fff" fill-opacity=".3"/>
  <path d="M885.408 32h-48.98v80h16.327V48h24.49v64h16.326V48h-8.163z" fill="#fff"/>
  <path d="M746.333 32v16h13.334v48H733v16h80V96h-26.667V32zm13.334-32h26.666v16h-26.666z" fill="#fff" fill-opacity=".3"/>
  <path d="M754.276 32v16h9.362v48h-18.723v16h56.17V96h-18.723V32zm9.362-32h18.724v16h-18.724z" fill="#fff"/>
  <path d="M666 32h22.333v16H699.5V32H733v16h-33.5v16h-11.167v48H666z" fill="#fff" fill-opacity=".3"/>
  <path d="M675.333 32h15.556v16h7.778V32H722v16h-23.333v16h-7.778v48h-15.556z" fill="#fff"/>
  <path d="M597 0v16h26.667v96h26.666V16H677V0z" fill="#fff" fill-opacity=".3"/>
  <path d="M609.5 0v16h18.611v96h18.611V16h18.611V0z" fill="#fff"/>
  <path d="M528 0h22.857v32h45.714v16H608v64h-22.857V48h-34.286v64H528z" fill="#fff" fill-opacity=".3"/>
  <path d="M539.531 0h16.268v32h32.536v16h8.133v64h-16.267V48h-24.402v64h-16.268z" fill="#fff"/>
  <path d="M504.571 32H436v80h22.857V48h34.286v64H516V48h-11.429z" fill="#fff" fill-opacity=".3"/>
  <path d="M496.408 32h-48.98v80h16.327V48h24.49v64h16.326V48h-8.163z" fill="#fff"/>
  <path d="M357.333 32v16h13.334v48H344v16h80V96h-26.667V32zm13.334-32h26.666v16h-26.666z" fill="#fff" fill-opacity=".3"/>
  <path d="M365.276 32v16h9.362v48h-18.723v16h56.17V96h-18.723V32zm9.362-32h18.724v16h-18.724z" fill="#fff"/>
  <path d="M252 112V0h22.857v16h11.429v16h11.428V16h11.429V0H332v112h-22.857V48.5h-11.429v31h-11.428v-31h-11.429V112z" fill="#fff" fill-opacity=".3"/>
  <path d="M262.714 112V0h16.735v16h8.367v16h8.368V16h8.367V0h16.735v112h-16.735V48.5h-8.367v31h-8.368v-31h-8.367V112z" fill="#fff"/>
  <path d="M0 112V0h32v16h16v16h16V16h16V0h32v112H80V48.5H64v31H48v-31H32V112zM124 0v16h32v96h32V16h32V0z" fill="#fff" fill-opacity=".3"/>
  <path d="M15 112V0h23.429v16h11.714v16h11.714V16h11.714V0H97v112H73.571V48.5H61.857v31H50.143v-31H38.429V112zM138 0v16h23v96h23V16h23V0z" fill="#fff"/>
</svg>
