<svg xmlns="http://www.w3.org/2000/svg" version="1.1" xmlns:xlink="http://www.w3.org/1999/xlink" width="1000" height="1000"><g clip-path="url(#SvgjsClipPath1263)"><rect width="1000" height="1000" fill="#ffffff"></rect><g transform="matrix(1.40625,0,0,1.40625,50,50)"><svg xmlns="http://www.w3.org/2000/svg" version="1.1" xmlns:xlink="http://www.w3.org/1999/xlink" width="640" height="640"><svg width="640" height="640" viewBox="0 0 640 640" fill="none" xmlns="http://www.w3.org/2000/svg">
<path d="M0 0H640V640H0V0Z" fill="black"></path>
<path d="M70 450.655V190H144.473V227.236H181.709V264.473H218.945V227.236H256.182V190H330.655V450.655H256.182V302.873H218.945V375.018H181.709V302.873H144.473V450.655H70Z" fill="white" fill-opacity="0.3"></path>
<path d="M358.582 190V227.236H433.055V450.655H507.527V227.236H582V190H358.582Z" fill="white" fill-opacity="0.3"></path>
<path d="M104.909 450.655V190H159.434V227.236H186.696V264.473H213.958V227.236H241.221V190H295.745V450.655H241.221V302.873H213.958V375.018H186.696V302.873H159.434V450.655H104.909Z" fill="white"></path>
<path d="M391.164 190V227.236H444.691V450.655H498.218V227.236H551.745V190H391.164Z" fill="white"></path>
</svg></svg></g></g><defs><clipPath id="SvgjsClipPath1263"><rect width="1000" height="1000" x="0" y="0" rx="0" ry="0"></rect></clipPath></defs></svg>